<svg id="Capa_1" data-name="Capa 1" xmlns="http://www.w3.org/2000/svg" viewBox="0 0 29.52 40">
  <defs>
    <style>
      .cls-1 {
        fill: #fff;
      }
    </style>
  </defs>
  <title>stretching-exercises</title>
  <g>
    <path class="cls-1" d="M27.16,0A17.36,17.36,0,0,0,13.25,8.4C11.4,10.72,7.71,17.8,6.37,21.5a104.81,104.81,0,0,0-6.22,15c-1,3,3.55,5,4.57,2a119.3,119.3,0,0,1,4.44-11.4c1.68,3.77,3.39,7.52,5.23,11.22,1.42,2.87,5.71.35,4.29-2.51C16.79,32,15,28.13,13.3,24.25L13.37,24a2,2,0,0,0,1,0l7.95-1.49a2,2,0,0,0,1.39-2.44c-0.54-3-2.23-5-4.34-7a7,7,0,0,0-2.51-2.94C19.16,6.4,23,4.34,28,3.9,30.53,3.67,29.68-.21,27.16,0ZM17.5,16.91a9.25,9.25,0,0,1,1.63,2.23l-3.85.72A21.75,21.75,0,0,1,17.5,16.91Z"/>
    <circle class="cls-1" cx="22.99" cy="10.11" r="3.41"/>
  </g>
</svg>
