<svg width="40" height="40" viewBox="0 0 40 40" version="1.1" xmlns="http://www.w3.org/2000/svg" xmlns:xlink="http://www.w3.org/1999/xlink">
<title>private_profile</title>
<desc>Created using Figma</desc>
<g id="Canvas" transform="translate(-4029 -294)">
<g id="private_profile">
<use xlink:href="#path0_fill" transform="translate(4029 294)" fill="#3E3E3E"/>
</g>
</g>
<defs>
<path id="path0_fill" fill-rule="evenodd" d="M 20 0C 8.97168 0 0 8.97235 0 20C 0 25.8007 2.48511 31.0305 6.4436 34.6873L 6.39136 34.7585L 6.90405 35.1978C 9.74316 37.6284 13.1985 39.1855 16.8538 39.7505C 17.1128 39.7913 17.3738 39.8247 17.6357 39.8553C 17.9199 39.888 18.2043 39.9171 18.491 39.9367C 18.9121 39.968 19.3359 39.9884 19.7637 39.9935C 19.7861 39.9935 19.8086 39.9949 19.8311 39.9964C 19.8533 39.9978 19.8755 39.9993 19.8982 39.9993L 19.936 39.9978L 19.9683 39.9985L 20.0007 39.9993C 31.0283 40 40 31.0276 40 20C 40 8.97235 31.0283 0 20 0ZM 19.8335 38.5415L 19.8311 38.5414C 19.8018 38.5403 19.7727 38.5392 19.7432 38.5389C 19.3958 38.536 19.0496 38.5178 18.7041 38.4953C 14.8508 38.2277 11.3193 36.7797 8.46826 34.5084C 8.74536 34.2466 9.05176 34.0247 9.38916 33.8538L 16.0342 31.0022C 16.5715 30.7346 16.9004 30.1396 17.2183 29.5018C 17.4175 29.1004 17.395 28.6328 17.1577 28.2502C 16.9199 27.8655 16.5083 27.6364 16.0574 27.6364L 11.4414 27.64C 11.4255 27.6385 9.84521 27.4785 8.65601 26.968C 8.51318 26.9068 8.4231 26.8542 8.36987 26.8229C 8.3396 26.8052 8.32104 26.7943 8.31128 26.7928C 8.32227 26.7622 8.34839 26.7025 8.41382 26.6102C 10.0603 24.2655 12.8379 19.5971 12.9331 14.6764C 12.939 14.4007 13.1536 7.92221 19.72 7.86838C 23.6218 7.90039 25.4668 10.1877 26.3281 12.1011C 26.7578 13.056 27.011 14.1949 27.1025 15.5811C 27.3862 19.872 29.3572 23.92 30.9607 26.5593C 31.0437 26.696 31.0684 26.8633 31.0305 27.0182C 30.9949 27.1615 30.9084 27.2807 30.7869 27.3535C 30.032 27.8044 29.0496 27.6495 29.0437 27.6473L 24.1985 27.6364C 23.6799 27.6364 23.2312 27.9637 23.0559 28.4698C 22.8794 28.9804 23.0356 29.5404 23.4458 29.864C 23.9622 30.272 24.1672 30.3978 24.2488 30.4415L 29.7898 33.7935C 30.2654 34.0531 30.6836 34.408 31.0203 34.8364C 27.8044 37.2575 23.9875 38.5353 19.9375 38.544C 19.9026 38.544 19.8682 38.5428 19.8335 38.5415ZM 30.5142 32.5331C 31.1528 32.8807 31.7214 33.3724 32.1819 33.9651C 36.0771 30.5629 38.5454 25.5658 38.5454 20C 38.5454 9.77383 30.2263 1.45456 20 1.45456C 9.77393 1.45456 1.45459 9.77383 1.45459 20C 1.45459 25.3469 3.73242 30.1695 7.3645 33.5571C 7.77539 33.1462 8.23779 32.8015 8.75635 32.5426L 8.79492 32.5251L 15.4226 29.6829C 15.5076 29.6262 15.6736 29.3273 15.7949 29.0916L 11.3701 29.0916C 11.2256 29.0807 9.47632 28.904 8.08228 28.3055C 7.42334 28.0226 7.03711 27.6509 6.90039 27.1709C 6.77539 26.728 6.88379 26.2575 7.22339 25.7738C 8.47192 23.9956 11.3877 19.352 11.4785 14.6465C 11.48 14.5637 11.7463 6.47928 19.72 6.41382C 24.4043 6.45239 26.6189 9.20364 27.6545 11.5047C 28.1565 12.6211 28.4502 13.9236 28.5542 15.4851C 28.8181 19.4836 30.6851 23.304 32.2036 25.8044C 32.4866 26.2698 32.5732 26.84 32.4414 27.3687C 32.312 27.8909 31.9885 28.3295 31.5325 28.6015C 30.4458 29.2524 29.1812 29.1353 28.864 29.0909L 24.835 29.0909C 24.9221 29.152 24.9614 29.1746 24.9731 29.1811L 30.5142 32.5331Z"/>
</defs>
</svg>
