<svg width="38" height="38" viewBox="0 0 38 38" version="1.1" xmlns="http://www.w3.org/2000/svg" xmlns:xlink="http://www.w3.org/1999/xlink">
<title>icon_instagram</title>
<desc>Created using Figma</desc>
<g id="Canvas" transform="translate(-654 -1083)">
<g id="icon_instagram">
<g id="Shape">
<use xlink:href="#path0_fill" transform="translate(654 1083)" fill="url(#paint0_linear)"/>
</g>
<g id="Shape">
<use xlink:href="#path1_fill" transform="translate(663.156 1092.16)" fill="url(#paint1_linear)"/>
</g>
<g id="Oval">
<use xlink:href="#path2_fill" transform="translate(680.446 1089.88)" fill="url(#paint2_linear)"/>
</g>
</g>
</g>
<defs>
<linearGradient id="paint0_linear" x1="0" y1="0" x2="1" y2="0" gradientUnits="userSpaceOnUse" gradientTransform="matrix(0 -37.5284 37.5284 0 18.9667 37.8231)">
<stop offset="0" stop-color="#E09B3D"/>
<stop offset="0.3" stop-color="#C74C4D"/>
<stop offset="0.6" stop-color="#C21975"/>
<stop offset="1" stop-color="#7024C4"/>
</linearGradient>
<linearGradient id="paint1_linear" x1="0" y1="0" x2="1" y2="0" gradientUnits="userSpaceOnUse" gradientTransform="matrix(0 -37.5284 37.5286 0 9.81095 28.6673)">
<stop offset="0" stop-color="#E09B3D"/>
<stop offset="0.3" stop-color="#C74C4D"/>
<stop offset="0.6" stop-color="#C21975"/>
<stop offset="1" stop-color="#7024C4"/>
</linearGradient>
<linearGradient id="paint2_linear" x1="0" y1="0" x2="1" y2="0" gradientUnits="userSpaceOnUse" gradientTransform="matrix(0 -37.5284 37.5284 0 2.35091 30.9445)">
<stop offset="0" stop-color="#E09B3D"/>
<stop offset="0.3" stop-color="#C74C4D"/>
<stop offset="0.6" stop-color="#C21975"/>
<stop offset="1" stop-color="#7024C4"/>
</linearGradient>
<path id="path0_fill" fill-rule="evenodd" d="M 11.3006 0L 26.6329 0C 32.864 0 37.9334 5.06946 37.9335 11.3005L 37.9335 26.6329C 37.9335 32.8641 32.8641 37.9335 26.6329 37.9335L 11.3006 37.9335C 5.0694 37.9335 0 32.8641 0 26.6329L 0 11.3005C 0 5.06946 5.0694 0 11.3006 0ZM 26.6329 34.1174C 30.7664 34.1174 34.1174 30.7665 34.1174 26.6329L 34.1174 11.3007C 34.1174 7.16699 30.7664 3.81616 26.6329 3.81616L 11.3006 3.81616C 7.16705 3.81616 3.8161 7.16699 3.8161 11.3007L 3.8161 26.6329C 3.8161 30.7665 7.16705 34.1174 11.3006 34.1174L 26.6329 34.1174Z"/>
<path id="path1_fill" fill-rule="evenodd" d="M 0 9.81091C 0 4.40125 4.40118 0 9.81097 0C 15.2207 0 19.6219 4.40112 19.6219 9.81091C 19.6219 15.2207 15.2207 19.6218 9.81097 19.6218C 4.40118 19.6218 0 15.2206 0 9.81091ZM 3.8161 9.81104C 3.8161 13.1219 6.50006 15.8059 9.81097 15.8059C 13.1218 15.8059 15.8058 13.1218 15.8058 9.81104C 15.8058 6.50012 13.1218 3.81616 9.81097 3.81616C 6.50012 3.81616 3.8161 6.50012 3.8161 9.81104Z"/>
<path id="path2_fill" d="M 2.35091 4.70181C 3.64928 4.70181 4.70181 3.64928 4.70181 2.35091C 4.70181 1.05254 3.64928 0 2.35091 0C 1.05254 0 0 1.05254 0 2.35091C 0 3.64928 1.05254 4.70181 2.35091 4.70181Z"/>
</defs>
</svg>
