<svg width="40" height="40" viewBox="0 0 40 40" version="1.1" xmlns="http://www.w3.org/2000/svg" xmlns:xlink="http://www.w3.org/1999/xlink">
<title>icon_calendar</title>
<desc>Created using Figma</desc>
<g id="Canvas" transform="translate(-4168 -294)">
<g id="icon_calendar">
<g id="Shape">
<use xlink:href="#path0_fill" transform="translate(4168 294)" fill="#4A4A4A"/>
</g>
<g id="Oval">
<use xlink:href="#path1_fill" transform="translate(4183 312)" fill="#4A4A4A"/>
</g>
<g id="Oval">
<use xlink:href="#path1_fill" transform="translate(4187 312)" fill="#4A4A4A"/>
</g>
<g id="Oval">
<use xlink:href="#path1_fill" transform="translate(4192 312)" fill="#4A4A4A"/>
</g>
<g id="Oval">
<use xlink:href="#path1_fill" transform="translate(4197 312)" fill="#4A4A4A"/>
</g>
<g id="Oval">
<use xlink:href="#path1_fill" transform="translate(4201 312)" fill="#4A4A4A"/>
</g>
<g id="Oval">
<use xlink:href="#path1_fill" transform="translate(4173 317)" fill="#4A4A4A"/>
</g>
<g id="Oval">
<use xlink:href="#path1_fill" transform="translate(4178 317)" fill="#4A4A4A"/>
</g>
<g id="Oval">
<use xlink:href="#path1_fill" transform="translate(4183 317)" fill="#4A4A4A"/>
</g>
<g id="Oval">
<use xlink:href="#path1_fill" transform="translate(4187 317)" fill="#4A4A4A"/>
</g>
<g id="Oval">
<use xlink:href="#path1_fill" transform="translate(4192 317)" fill="#4A4A4A"/>
</g>
<g id="Oval">
<use xlink:href="#path1_fill" transform="translate(4197 317)" fill="#4A4A4A"/>
</g>
<g id="Oval">
<use xlink:href="#path1_fill" transform="translate(4201 317)" fill="#4A4A4A"/>
</g>
<g id="Oval">
<use xlink:href="#path1_fill" transform="translate(4173 322)" fill="#4A4A4A"/>
</g>
<g id="Oval">
<use xlink:href="#path1_fill" transform="translate(4178 322)" fill="#4A4A4A"/>
</g>
<g id="Oval">
<use xlink:href="#path1_fill" transform="translate(4183 322)" fill="#4A4A4A"/>
</g>
<g id="Oval">
<use xlink:href="#path1_fill" transform="translate(4187 322)" fill="#4A4A4A"/>
</g>
<g id="Oval">
<use xlink:href="#path1_fill" transform="translate(4192 322)" fill="#4A4A4A"/>
</g>
<g id="Oval">
<use xlink:href="#path1_fill" transform="translate(4197 322)" fill="#4A4A4A"/>
</g>
<g id="Oval">
<use xlink:href="#path1_fill" transform="translate(4201 322)" fill="#4A4A4A"/>
</g>
<g id="Oval">
<use xlink:href="#path1_fill" transform="translate(4173 327)" fill="#4A4A4A"/>
</g>
<g id="Oval">
<use xlink:href="#path1_fill" transform="translate(4178 327)" fill="#4A4A4A"/>
</g>
<g id="Oval">
<use xlink:href="#path1_fill" transform="translate(4183 327)" fill="#4A4A4A"/>
</g>
<g id="Oval">
<use xlink:href="#path1_fill" transform="translate(4187 327)" fill="#4A4A4A"/>
</g>
<g id="Oval">
<use xlink:href="#path1_fill" transform="translate(4192 327)" fill="#4A4A4A"/>
</g>
</g>
</g>
<defs>
<path id="path0_fill" fill-rule="evenodd" d="M 33.5 7.33334C 32.458 6.77466 25.9785 3.28665 22.418 1.05267C 21.8101 0.40799 20.9541 0 20 0C 19.0459 0 18.1899 0.40799 17.582 1.05267C 14.0205 3.28601 7.54199 6.77466 6.5 7.33334L 0 7.33334L 0 40L 40 40L 40 7.33334L 33.5 7.33334ZM 21.4819 2.00269L 21.4849 2.00757C 21.4858 2.00955 21.4868 2.01154 21.4888 2.01334C 21.6509 2.19534 21.8291 2.47067 21.9268 2.82401C 21.9302 2.83707 21.9346 2.84979 21.9395 2.86255C 21.9453 2.87906 21.9512 2.89566 21.9546 2.91333C 21.9829 3.04266 22 3.18268 22 3.33334C 22 4.436 21.1025 5.33334 20 5.33334C 18.8975 5.33334 18 4.436 18 3.33334C 18 3.18268 18.0171 3.04266 18.0459 2.91333C 18.0498 2.89658 18.0552 2.8808 18.0605 2.86505L 18.0635 2.85608L 18.0659 2.84912C 18.0688 2.84131 18.0713 2.8334 18.0732 2.82535C 18.1709 2.47067 18.3491 2.19601 18.5112 2.01334L 18.5142 2.00845C 18.5151 2.00647 18.5161 2.00449 18.5181 2.00269C 18.8848 1.59534 19.4102 1.33334 20 1.33334C 20.5898 1.33334 21.1152 1.59534 21.4819 2.00269ZM 16.6665 3.33334C 16.6665 3.27869 16.668 3.224 16.6704 3.16934C 14.2754 4.59335 11.314 6.23401 9.29932 7.33334L 30.7007 7.33334C 28.686 6.23401 25.7246 4.59335 23.3291 3.16934C 23.332 3.224 23.3335 3.27869 23.3335 3.33334C 23.3335 5.17136 21.8379 6.66669 20 6.66669C 18.1621 6.66669 16.6665 5.17136 16.6665 3.33334ZM 33.3335 8.66666L 38.667 8.66666L 38.667 12L 1.3335 12L 1.3335 8.66666L 6.66699 8.66666L 33.3335 8.66666ZM 1.3335 13.3333L 1.3335 38.6667L 38.667 38.6667L 38.667 13.3333L 1.3335 13.3333Z"/>
<path id="path1_fill" d="M 0.666667 1.33333C 1.03486 1.33333 1.33333 1.03486 1.33333 0.666667C 1.33333 0.298477 1.03486 0 0.666667 0C 0.298477 0 0 0.298477 0 0.666667C 0 1.03486 0.298477 1.33333 0.666667 1.33333Z"/>
</defs>
</svg>
