<svg id="Layer_1" data-name="Layer 1" xmlns="http://www.w3.org/2000/svg" viewBox="0 0 35 40">
  <defs>
    <style>
      .cls-1 {
        fill: #fff;
      }
    </style>
  </defs>
  <title>recipe</title>
  <g>
    <path class="cls-1" d="M20.83,16.67a0.83,0.83,0,0,0-.83.83h0v4.17h0a0.83,0.83,0,0,0,1.67,0h0V17.5h0A0.83,0.83,0,0,0,20.83,16.67Z"/>
    <path class="cls-1" d="M17.5,16.67a0.83,0.83,0,0,0-.83.83h0v4.17h0a0.83,0.83,0,0,0,1.67,0h0V17.5h0A0.83,0.83,0,0,0,17.5,16.67Z"/>
    <path class="cls-1" d="M14.17,16.67a0.83,0.83,0,0,0-.83.83h0v4.17h0a0.83,0.83,0,0,0,1.67,0h0V17.5h0A0.83,0.83,0,0,0,14.17,16.67Z"/>
    <path class="cls-1" d="M22.67,8.44A6.09,6.09,0,0,0,21,8.67a5.83,5.83,0,0,0-7,0,6.1,6.1,0,0,0-4,11.49v9H25v-9A6.1,6.1,0,0,0,22.67,8.44ZM23.35,27.5h0a0.83,0.83,0,0,0-1.67,0H20.84a0.83,0.83,0,0,0-1.67,0H18.34a0.83,0.83,0,0,0-1.67,0H15.84a0.83,0.83,0,0,0-1.67,0H13.34a0.83,0.83,0,0,0-1.67,0V26.67H23.35V27.5h0Zm3-10.48a4.43,4.43,0,0,1-2,1.61l-1,.43v6H11.68V19l-1-.43a4.43,4.43,0,0,1,1.7-8.52h0.29a5.8,5.8,0,0,0-1,3.08,0.87,0.87,0,0,0,0,.14,0.83,0.83,0,1,0,1.67,0h0a4.17,4.17,0,0,1,8.33-.11,0.81,0.81,0,0,0,0,.11,0.83,0.83,0,1,0,1.67,0h0a5.8,5.8,0,0,0-1-3.22h0.29A4.43,4.43,0,0,1,26.34,17Z"/>
    <path class="cls-1" d="M35,35.84v-35A0.83,0.83,0,0,0,34.17,0H3.33A3.33,3.33,0,0,0,0,3.33H0V37.5A2.5,2.5,0,0,0,2.5,40H34.17a0.83,0.83,0,0,0,0-1.67V36.67A0.83,0.83,0,0,0,35,35.84ZM2.5,38.33a0.83,0.83,0,0,1-.11-1.66h30a0.83,0.83,0,0,0,.11,1.66H2.5ZM33.33,35H1.67V3.33A1.67,1.67,0,0,1,3.33,1.67h30V35h0Z"/>
  </g>
</svg>
