<svg id="Слой_1" data-name="Слой 1" xmlns="http://www.w3.org/2000/svg" viewBox="0 0 14 14">
  <defs>
    <style>
      .cls-1 {
        fill: #fff;
      }
    </style>
  </defs>
  <title>search</title>
  <g id="Canvas">
    <g id="search">
      <path id="path0_fill" data-name="path0 fill" class="cls-1" d="M13.74,12.57L9.91,8.74A5.43,5.43,0,0,0,11,5.51,5.53,5.53,0,0,0,5.46,0,5.44,5.44,0,0,0,0,5.47,5.53,5.53,0,0,0,5.5,11,5.41,5.41,0,0,0,8.74,9.91h0l3.83,3.83A0.83,0.83,0,1,0,13.74,12.57ZM5.5,9.88A4.43,4.43,0,0,1,1.1,5.47,4.35,4.35,0,0,1,5.46,1.1,4.43,4.43,0,0,1,9.86,5.5,4.35,4.35,0,0,1,5.5,9.88Z"/>
    </g>
  </g>
</svg>
